General
Complete name                    : Deliverance.mkv
Format                           : Matroska
File size                        : 2.09 GiB
Duration                         : 1h 44mn
Overall bit rate                 : 2 861 Kbps


Video
ID                               : 1
Format                           : AVC
Duration                         : 1h 44mn
Bit rate                         : 2 164 Kbps
Width                            : 658 pixels
Height                           : 390 pixels
Display aspect ratio             : 2.35:1
Original display aspect ratio    : 2.35:1
Frame rate                       : 25.000 fps
Resolution                       : 8 bits
Colorimetry                      : 4:2:0
Scan type                        : Progressive
Bits/(Pixel*Frame)               : 0.337
Stream size                      : 1.58 GiB (76%)
Writing library                  : x264 core 79


Audio #1
ID                               : 2
Format                           : AC-3
Format/Info                      : Audio Coding 3
Codec ID                         : A_AC3
Duration                         : 1h 44mn
Bit rate mode                    : Constant
Bit rate                         : 384 Kbps
Channel(s)                       : 6 channels
Channel positions                : Front: L C R, Surround: L R, LFE
Sampling rate                    : 48.0 KHz
Stream size                      : 287 MiB (13%)
Language                         : English

Audio #2
ID                               : 3
Format                           : MPEG Audio
Format version                   : Version 1
Format profile                   : Layer 3
Mode                             : Joint stereo / MS Stereo
Codec ID                         : A_MPEG/L3
Codec ID/Hint                    : MP3
Duration                         : 1h 44mn
Bit rate mode                    : Constant
Bit rate                         : 128 Kbps
Channel(s)                       : 2 channels
Sampling rate                    : 48.0 KHz
Stream size                      : 95.8 MiB (4%)
Writing library                  : LAME3.98
Language                         : German

Audio #3
ID                               : 4
Format                           : MPEG Audio
Format version                   : Version 1
Format profile                   : Layer 3
Mode                             : Joint stereo / MS Stereo
Codec ID                         : A_MPEG/L3
Codec ID/Hint                    : MP3
Duration                         : 1h 44mn
Bit rate mode                    : Constant
Bit rate                         : 128 Kbps
Channel(s)                       : 2 channels
Sampling rate                    : 48.0 KHz
Stream size                      : 95.8 MiB (4%)
Writing library                  : LAME3.98
Language                         : Spanish

Text #1
Language                         : English

Text #2
Language                         : German

Text #3
Language                         : Spanish

Text #4
Language                         : Dutch

Text #5
Language                         : Swedish

Text #6
Language                         : Danish

Text #7
Language                         : Finnish

Text #8
Language                         : Portuguese

Text #9
Language                         : xxxxxxxx

Text #10
Language                         : Polish


Text #11
Language                         : Greek

Text #12
Language                         : Czech

Text #13
Language                         : Turkish

Text #14
Language                         : Hungarian

Text #15
Language                         : Icelandic

Text #16
Language                         : Croatian

Text #17
Language                         : French

Text #18
Language                         : Italian

Text #19
Language                         : English(for hearing)



